<svg width="24" height="25" viewBox="0 0 24 25" fill="none" xmlns="http://www.w3.org/2000/svg">
<path fill-rule="evenodd" clip-rule="evenodd" d="M17.312 2.43059C15.9686 2.24998 14.2479 2.24999 12.0572 2.25H11.9428C9.75212 2.24999 8.03144 2.24998 6.68802 2.43059C5.31137 2.61568 4.21911 3.00272 3.36091 3.86091C2.50272 4.71911 2.11568 5.81137 1.93059 7.18802C1.74998 8.53144 1.74999 10.2521 1.75 12.4428V12.5572C1.74999 14.7479 1.74998 16.4686 1.93059 17.812C2.11568 19.1886 2.50272 20.2809 3.36091 21.1391C4.21911 21.9973 5.31137 22.3843 6.68802 22.5694C8.03144 22.75 9.7521 22.75 11.9428 22.75H12.0572C14.2479 22.75 15.9686 22.75 17.312 22.5694C18.6886 22.3843 19.7809 21.9973 20.6391 21.1391C21.4973 20.2809 21.8843 19.1886 22.0694 17.812C22.25 16.4686 22.25 14.7479 22.25 12.5572V12.4428C22.25 10.2521 22.25 8.53144 22.0694 7.18802C21.8843 5.81137 21.4973 4.71911 20.6391 3.86091C19.7809 3.00272 18.6886 2.61568 17.312 2.43059ZM13 8.5C13 7.94772 12.5523 7.5 12 7.5C11.4477 7.5 11 7.94772 11 8.5V11.5H8C7.44772 11.5 7 11.9477 7 12.5C7 13.0523 7.44772 13.5 8 13.5H11V16.5C11 17.0523 11.4477 17.5 12 17.5C12.5523 17.5 13 17.0523 13 16.5V13.5H16C16.5523 13.5 17 13.0523 17 12.5C17 11.9477 16.5523 11.5 16 11.5H13V8.5Z" fill="#4C6FFF"/>
</svg>
