<svg width="18" height="19" viewBox="0 0 18 19" fill="none" xmlns="http://www.w3.org/2000/svg">
<path d="M3.99129 7.7622C5.80155 4.55899 6.70667 2.95738 7.94873 2.54511C8.63198 2.3183 9.36803 2.3183 10.0513 2.54511C11.2934 2.95738 12.1985 4.55899 14.0087 7.7622C15.819 10.9654 16.7241 12.567 16.4526 13.872C16.3032 14.5899 15.9352 15.2412 15.4013 15.7323C14.4308 16.625 12.6206 16.625 9 16.625C5.37949 16.625 3.56923 16.625 2.59872 15.7323C2.06481 15.2412 1.6968 14.5899 1.54742 13.872C1.2759 12.567 2.18103 10.9654 3.99129 7.7622Z" stroke="black" stroke-width="1.125"/>
<path d="M8.99414 12.5H9.00089" stroke="black" stroke-width="1.5" stroke-linecap="round" stroke-linejoin="round"/>
<path d="M9 10.25V7.25" stroke="black" stroke-width="1.125" stroke-linecap="round" stroke-linejoin="round"/>
</svg>
