<svg width="16" height="16" viewBox="0 0 16 16" fill="none" xmlns="http://www.w3.org/2000/svg">
<path fill-rule="evenodd" clip-rule="evenodd" d="M8.03013 0.833008C9.25447 0.833001 10.2143 0.833001 10.9757 0.915495C11.7527 0.999681 12.3823 1.17455 12.9199 1.56511C13.2453 1.80155 13.5315 2.08773 13.7679 2.41317C14.1585 2.95071 14.3333 3.5803 14.4175 4.35733C14.5 5.11873 14.5 6.0785 14.5 7.30281V8.69654C14.5 9.92087 14.5 10.8806 14.4175 11.642C14.3333 12.4191 14.1585 13.0486 13.7679 13.5862C13.5315 13.9116 13.2453 14.1978 12.9199 14.4342C12.3823 14.8248 11.7527 14.9997 10.9757 15.0839C10.2143 15.1663 9.25453 15.1663 8.0302 15.1663H7.9698C6.74547 15.1663 5.78573 15.1663 5.02432 15.0839C4.24729 14.9997 3.61771 14.8248 3.08016 14.4342C2.75473 14.1978 2.46854 13.9116 2.2321 13.5862C1.84155 13.0486 1.66667 12.4191 1.58249 11.642C1.49999 10.8806 1.49999 9.92087 1.5 8.69654V7.30287C1.49999 6.07855 1.49999 5.11875 1.58249 4.35733C1.66667 3.5803 1.84155 2.95071 2.2321 2.41317C2.46854 2.08773 2.75473 1.80155 3.08016 1.56511C3.61771 1.17455 4.24729 0.999681 5.02432 0.915495C5.78574 0.833001 6.74547 0.833001 7.9698 0.833008H8.03013ZM4.66667 7.99967C4.66667 7.63147 4.96515 7.33301 5.33333 7.33301H10.6667C11.0349 7.33301 11.3333 7.63147 11.3333 7.99967C11.3333 8.36787 11.0349 8.66634 10.6667 8.66634H5.33333C4.96515 8.66634 4.66667 8.36787 4.66667 7.99967ZM6.33333 11.333C6.33333 10.9648 6.63181 10.6663 7 10.6663H9C9.3682 10.6663 9.66667 10.9648 9.66667 11.333C9.66667 11.7012 9.3682 11.9997 9 11.9997H7C6.63181 11.9997 6.33333 11.7012 6.33333 11.333Z" fill="#4C6FFF"/>
</svg>
