<svg width="35" height="35" viewBox="0 0 35 35" fill="none" xmlns="http://www.w3.org/2000/svg">
<g clip-path="url(#clip0_10047_23413)">
<path d="M24.3056 11.6668V8.79872C24.3056 7.905 24.1295 7.02003 23.7875 6.19435C23.4455 5.36866 22.9442 4.61842 22.3123 3.98647C21.6803 3.35451 20.9301 2.85322 20.1044 2.51121C19.2787 2.16919 18.3937 1.99316 17.5 1.99316C16.6063 1.99316 15.7213 2.16919 14.8956 2.51121C14.0699 2.85322 13.3197 3.35451 12.6877 3.98647C12.0558 4.61842 11.5545 5.36866 11.2125 6.19435C10.8705 7.02003 10.6944 7.905 10.6944 8.79872V15.6043C10.6944 15.8621 10.7969 16.1094 10.9792 16.2917C11.1615 16.4741 11.4088 16.5765 11.6667 16.5765C11.9245 16.5765 12.1718 16.4741 12.3541 16.2917C12.5365 16.1094 12.6389 15.8621 12.6389 15.6043V13.6112H20.4167V11.6668H12.6389V8.79872C12.6389 7.50947 13.151 6.27303 14.0627 5.3614C14.9743 4.44976 16.2108 3.93761 17.5 3.93761C18.7892 3.93761 20.0257 4.44976 20.9373 5.3614C21.849 6.27303 22.3611 7.50947 22.3611 8.79872V15.5557C22.3611 15.8135 22.4635 16.0608 22.6459 16.2431C22.8282 16.4255 23.0755 16.5279 23.3333 16.5279C23.5912 16.5279 23.8385 16.4255 24.0208 16.2431C24.2031 16.0608 24.3056 15.8135 24.3056 15.5557V13.6112H29.1667V31.1112H5.83333V13.6112H8.75V11.6668H3.88889V31.1987C3.88889 31.6912 4.08453 32.1635 4.43277 32.5118C4.78102 32.86 5.25334 33.0557 5.74583 33.0557H29.2542C29.7467 33.0557 30.219 32.86 30.5672 32.5118C30.9155 32.1635 31.1111 31.6912 31.1111 31.1987V11.6668H24.3056Z" fill="white"/>
</g>
<defs>
<clipPath id="clip0_10047_23413">
<rect width="35" height="35" fill="white"/>
</clipPath>
</defs>
</svg>
