<svg width="24" height="20" viewBox="0 0 24 20" fill="none" xmlns="http://www.w3.org/2000/svg">
<path fill-rule="evenodd" clip-rule="evenodd" d="M6.4486 1.06483C7.53734 0.520456 8.78437 0.520878 10.7118 0.521528L10.9166 0.521572H14.2277C16.2186 0.521561 17.7955 0.521539 19.0297 0.687473C20.2998 0.858239 21.3278 1.21802 22.1386 2.02876C22.9493 2.83948 23.3091 3.86751 23.4798 5.13763C23.6458 6.37178 23.6458 7.94871 23.6458 9.93966V10.0619C23.6458 12.0528 23.6458 13.6297 23.4798 14.8638C23.3091 16.1339 22.9493 17.162 22.1386 17.9727C21.3278 18.7835 20.2998 19.1432 19.0297 19.314C17.7956 19.4799 16.2186 19.4799 14.2278 19.4799H10.9166C10.8475 19.4799 10.7792 19.4799 10.7118 19.4799C8.78437 19.4806 7.53734 19.481 6.4486 18.9366C5.35984 18.3923 4.61202 17.3945 3.4561 15.8521C3.31939 15.6697 3.18159 15.4878 3.04357 15.3057C2.38274 14.4335 1.71844 13.5569 1.16854 12.6122C0.658937 11.7368 0.354088 10.9192 0.354088 10.0008C0.354088 9.08231 0.658937 8.26472 1.16854 7.38922C1.71844 6.44448 2.38284 5.56772 3.04379 4.69548C3.18169 4.51346 3.31949 4.33162 3.4561 4.14942C4.61202 2.60701 5.35984 1.60921 6.4486 1.06483ZM9.06723 7.51671C8.64419 7.09366 8.64419 6.40772 9.06723 5.98465C9.49027 5.56156 10.1761 5.56154 10.5993 5.98459L13.0835 8.4686L15.5672 5.98502C15.9903 5.56196 16.6763 5.56199 17.0993 5.98507C17.5224 6.40816 17.5223 7.09408 17.0993 7.51713L14.6156 10.0007L17.0993 12.4842C17.5223 12.9072 17.5224 13.5932 17.0993 14.0162C16.6763 14.4393 15.9903 14.4393 15.5672 14.0162L13.0835 11.5327L10.5993 14.0167C10.1761 14.4397 9.49027 14.4397 9.06723 14.0167C8.64419 13.5935 8.64419 12.9077 9.06723 12.4846L11.5513 10.0007L9.06723 7.51671Z" fill="#0A0B0D"/>
</svg>
