<svg width="40" height="40" viewBox="0 0 40 40" fill="none" xmlns="http://www.w3.org/2000/svg">
<circle cx="20" cy="20" r="20" fill="#EFF2FF"/>
<path d="M14.1586 13.3251C13.9928 13.3251 13.8308 13.3746 13.6933 13.4672C13.5558 13.5598 13.449 13.6913 13.3866 13.8449C13.3242 13.9985 13.3091 14.1672 13.3431 14.3294C13.3771 14.4917 13.4587 14.6401 13.5775 14.7557L18.8216 19.9999L13.5775 25.244C13.4975 25.3208 13.4337 25.4128 13.3897 25.5146C13.3457 25.6163 13.3225 25.7259 13.3213 25.8367C13.3202 25.9476 13.3412 26.0576 13.3831 26.1602C13.425 26.2629 13.487 26.3561 13.5654 26.4345C13.6438 26.5129 13.737 26.5749 13.8397 26.6168C13.9423 26.6587 14.0523 26.6797 14.1632 26.6786C14.2741 26.6774 14.3836 26.6542 14.4854 26.6102C14.5871 26.5662 14.6791 26.5024 14.7559 26.4224L20 21.1783L25.2442 26.4224C25.321 26.5024 25.4129 26.5662 25.5147 26.6102C25.6165 26.6542 25.726 26.6774 25.8369 26.6786C25.9477 26.6797 26.0577 26.6587 26.1604 26.6168C26.263 26.5749 26.3563 26.5129 26.4347 26.4345C26.5131 26.3561 26.575 26.2629 26.6169 26.1602C26.6589 26.0576 26.6799 25.9476 26.6787 25.8367C26.6776 25.7259 26.6544 25.6163 26.6104 25.5146C26.5664 25.4128 26.5025 25.3208 26.4226 25.244L21.1784 19.9999L26.4226 14.7557C26.543 14.6387 26.6252 14.488 26.6585 14.3234C26.6918 14.1588 26.6746 13.988 26.6092 13.8333C26.5437 13.6787 26.4331 13.5474 26.2917 13.4567C26.1504 13.366 25.9849 13.3201 25.8171 13.3251C25.6006 13.3315 25.3951 13.422 25.2442 13.5773L20 18.8215L14.7559 13.5773C14.6782 13.4975 14.5854 13.4341 14.4828 13.3907C14.3802 13.3474 14.2699 13.3251 14.1586 13.3251Z" fill="#111011"/>
</svg>
