<svg width="16" height="16" viewBox="0 0 16 16" fill="none" xmlns="http://www.w3.org/2000/svg">
<path fill-rule="evenodd" clip-rule="evenodd" d="M9.36108 0.841395C9.41454 0.842522 9.45468 0.890495 9.44654 0.943361C9.38054 1.33947 9.33741 1.59279 9.28281 1.77879C9.23181 1.95269 9.18641 2.0089 9.15101 2.0403C9.11208 2.07485 9.05148 2.11249 8.87528 2.13683C8.68234 2.1635 8.41901 2.16629 7.99968 2.16629C7.58028 2.16629 7.31694 2.1635 7.12401 2.13683C6.94788 2.11249 6.88721 2.07485 6.84828 2.0403C6.81288 2.0089 6.76754 1.95269 6.71648 1.77879C6.66198 1.5931 6.61889 1.34031 6.55306 0.945335C6.54522 0.891268 6.58633 0.842488 6.64095 0.841342C7.03921 0.833002 7.47874 0.833002 7.96248 0.833008H8.03688C8.52168 0.833002 8.96214 0.833002 9.36108 0.841395ZM5.37309 0.923042C5.46426 0.910788 5.54722 0.975328 5.56041 1.06636L5.56444 1.09416L5.56608 1.10465L5.57076 1.13275C5.63102 1.49447 5.68344 1.80911 5.75724 2.06055C5.83664 2.3311 5.95571 2.58514 6.1849 2.78848C6.42194 2.99879 6.69494 3.08715 6.98741 3.12757C7.26314 3.16567 7.60341 3.16644 7.99994 3.16644C8.39648 3.16644 8.73674 3.16567 9.01248 3.12757C9.30488 3.08715 9.57794 2.99879 9.81501 2.78848C10.0441 2.58514 10.1632 2.3311 10.2426 2.06055C10.3164 1.80911 10.3689 1.49447 10.4291 1.13275L10.4338 1.10465L10.4399 1.06493C10.4537 0.974581 10.5363 0.910868 10.6269 0.923042C11.3178 1.01593 11.8867 1.21293 12.3368 1.66302C12.7869 2.11311 12.9839 2.68205 13.0768 3.3729C13.1667 4.04163 13.1667 4.89427 13.1667 5.96266V10.037C13.1667 11.1054 13.1667 11.958 13.0768 12.6267C12.9839 13.3176 12.7869 13.8865 12.3368 14.3366C11.8867 14.7867 11.3178 14.9837 10.6269 15.0766C9.95821 15.1665 9.10554 15.1665 8.03714 15.1665H7.96288C6.89448 15.1665 6.04181 15.1665 5.37309 15.0766C4.68224 14.9837 4.1133 14.7867 3.66321 14.3366C3.21312 13.8865 3.01611 13.3176 2.92323 12.6267C2.83332 11.958 2.83333 11.1054 2.83334 10.037V5.96265C2.83333 4.89427 2.83332 4.04161 2.92323 3.3729C3.01611 2.68205 3.21312 2.11311 3.66321 1.66302C4.1133 1.21293 4.68224 1.01593 5.37309 0.923042ZM6.83334 13.333C6.83334 13.0569 7.05721 12.833 7.33334 12.833H8.66668C8.94281 12.833 9.16668 13.0569 9.16668 13.333C9.16668 13.6091 8.94281 13.833 8.66668 13.833H7.33334C7.05721 13.833 6.83334 13.6091 6.83334 13.333Z" fill="#4C6FFF"/>
</svg>
