<svg width="16" height="16" viewBox="0 0 16 16" fill="none" xmlns="http://www.w3.org/2000/svg">
<path d="M1.5996 9.43155C1.59252 9.28215 1.58898 9.20748 1.62987 9.18868C1.67075 9.16988 1.7261 9.22215 1.83678 9.32661C3.52248 10.9177 5.93692 11.4993 8.00054 11.4993C10.0643 11.4993 12.4789 10.9176 14.1647 9.32628C14.2753 9.22181 14.3307 9.16955 14.3716 9.18835C14.4125 9.20715 14.4089 9.28181 14.4019 9.43121L14.3964 9.54575C14.3432 10.6607 14.3008 11.5497 14.1704 12.2453C14.0354 12.9654 13.7951 13.5466 13.298 13.9989C12.8042 14.4483 12.1931 14.6465 11.4431 14.7408C10.7123 14.8327 9.78214 14.8327 8.60607 14.8327H7.39534C6.2193 14.8327 5.2891 14.8327 4.55837 14.7408C3.8083 14.6465 3.19725 14.4483 2.70342 13.9989C2.20636 13.5466 1.96601 12.9654 1.83102 12.2453C1.70064 11.5497 1.65822 10.6607 1.60502 9.54575L1.5996 9.43155Z" fill="#4C6FFF"/>
<path fill-rule="evenodd" clip-rule="evenodd" d="M1.32129 4.93919C1.55936 4.21529 2.13276 3.5 3.09877 3.5H12.9015C13.8675 3.5 14.4409 4.21528 14.6789 4.93919C14.9151 5.65733 14.8882 6.54123 14.5445 7.19473C13.2867 9.5866 10.4991 10.5 8.00013 10.5C5.50118 10.5 2.71348 9.5866 1.45569 7.19473C1.11202 6.54123 1.08513 5.65733 1.32129 4.93919ZM7.9972 6.66667C7.63067 6.66667 7.33347 6.96513 7.33347 7.33333C7.33347 7.70153 7.63067 8 7.9972 8H8.00313C8.36967 8 8.6668 7.70153 8.6668 7.33333C8.6668 6.96513 8.36967 6.66667 8.00313 6.66667H7.9972Z" fill="#4C6FFF"/>
<path fill-rule="evenodd" clip-rule="evenodd" d="M7.88346 1C7.96153 1.00001 8.04 1.00001 8.11766 1C8.54786 0.999969 8.93386 0.999929 9.2538 1.04255C9.6076 1.08968 9.94553 1.19552 10.2482 1.45005C10.5421 1.69722 10.7176 2.01339 10.8539 2.3553C10.9835 2.68031 11.1014 3.09276 11.2403 3.57886L11.3083 3.81686L10.0262 4.18316L9.96733 3.97712C9.81686 3.45041 9.717 3.1038 9.61546 2.84915C9.5178 2.60432 9.44533 2.517 9.39006 2.47054C9.3436 2.43146 9.275 2.39048 9.07773 2.36421C8.85626 2.3347 8.5602 2.33334 8.07853 2.33334H7.9226C7.44093 2.33334 7.14486 2.3347 6.9234 2.36421C6.72606 2.39048 6.6575 2.43146 6.61101 2.47054C6.55576 2.517 6.48329 2.60432 6.38566 2.84915C6.28412 3.1038 6.18426 3.45041 6.03377 3.97712L5.9749 4.18316L4.69287 3.81686C4.71554 3.73753 4.7382 3.6582 4.76086 3.57887C4.89973 3.09277 5.01756 2.68031 5.14716 2.3553C5.2835 2.01339 5.45896 1.69722 5.75289 1.45005C6.05558 1.19552 6.39349 1.08968 6.74733 1.04255C7.06726 0.999929 7.4532 0.999969 7.88346 1Z" fill="#4C6FFF"/>
</svg>
