<svg width="15" height="14" viewBox="0 0 15 14" fill="none" xmlns="http://www.w3.org/2000/svg">
<g clip-path="url(#clip0_4825_4528)">
<path d="M5.74988 8.75C5.74988 7.1001 5.74988 6.27515 6.26244 5.76256C6.77503 5.25 7.59998 5.25 9.24988 5.25H9.83321C11.4831 5.25 12.3081 5.25 12.8206 5.76256C13.3332 6.27515 13.3332 7.1001 13.3332 8.75V9.33333C13.3332 10.9832 13.3332 11.8082 12.8206 12.3208C12.3081 12.8333 11.4831 12.8333 9.83321 12.8333H9.24988C7.59998 12.8333 6.77503 12.8333 6.26244 12.3208C5.74988 11.8082 5.74988 10.9832 5.74988 9.33333V8.75Z" stroke="white" stroke-width="2" stroke-linecap="round" stroke-linejoin="round"/>
<path d="M10.4166 5.2513C10.4152 3.52633 10.3891 2.63284 9.88696 2.02105C9.79001 1.9029 9.68168 1.79457 9.56356 1.69761C8.91816 1.16797 7.95933 1.16797 6.04163 1.16797C4.12393 1.16797 3.16508 1.16797 2.51971 1.69761C2.40156 1.79457 2.29323 1.9029 2.19627 2.02105C1.66663 2.66642 1.66663 3.62527 1.66663 5.54297C1.66663 7.46068 1.66663 8.4195 2.19627 9.0649C2.29323 9.18303 2.40156 9.29135 2.51971 9.3883C3.1315 9.89044 4.02499 9.91651 5.74996 9.91791" stroke="white" stroke-width="2" stroke-linecap="round" stroke-linejoin="round"/>
</g>
<defs>
<clipPath id="clip0_4825_4528">
<rect width="14" height="14" fill="white" transform="translate(0.5)"/>
</clipPath>
</defs>
</svg>
