<svg width="14" height="16" viewBox="0 0 14 16" fill="none" xmlns="http://www.w3.org/2000/svg">
<path fill-rule="evenodd" clip-rule="evenodd" d="M7.03013 0.833008C8.25447 0.833001 9.21427 0.833001 9.97567 0.915495C10.7527 0.999681 11.3823 1.17455 11.9199 1.56511C12.2453 1.80155 12.5315 2.08773 12.7679 2.41317C13.1585 2.95071 13.3333 3.5803 13.4175 4.35733C13.5 5.11873 13.5 6.0785 13.5 7.30281V8.69654C13.5 9.92087 13.5 10.8806 13.4175 11.642C13.3333 12.4191 13.1585 13.0486 12.7679 13.5862C12.5315 13.9116 12.2453 14.1978 11.9199 14.4342C11.3823 14.8248 10.7527 14.9997 9.97567 15.0839C9.21427 15.1663 8.25453 15.1663 7.0302 15.1663H6.9698C5.74547 15.1663 4.78573 15.1663 4.02432 15.0839C3.24729 14.9997 2.61771 14.8248 2.08016 14.4342C1.75473 14.1978 1.46854 13.9116 1.2321 13.5862C0.841547 13.0486 0.666673 12.4191 0.582487 11.642C0.499993 10.8806 0.499993 9.92087 0.5 8.69654V7.30287C0.499993 6.07855 0.499993 5.11875 0.582487 4.35733C0.666673 3.5803 0.841547 2.95071 1.2321 2.41317C1.46854 2.08773 1.75473 1.80155 2.08016 1.56511C2.61771 1.17455 3.24729 0.999681 4.02432 0.915495C4.78574 0.833001 5.74547 0.833001 6.9698 0.833008H7.03013ZM3.66667 7.99967C3.66667 7.63147 3.96515 7.33301 4.33333 7.33301H9.66667C10.0349 7.33301 10.3333 7.63147 10.3333 7.99967C10.3333 8.36787 10.0349 8.66634 9.66667 8.66634H4.33333C3.96515 8.66634 3.66667 8.36787 3.66667 7.99967ZM5.33333 11.333C5.33333 10.9648 5.63181 10.6663 6 10.6663H8C8.3682 10.6663 8.66667 10.9648 8.66667 11.333C8.66667 11.7012 8.3682 11.9997 8 11.9997H6C5.63181 11.9997 5.33333 11.7012 5.33333 11.333Z" fill="#4C6FFF"/>
</svg>
