<svg width="14" height="14" viewBox="0 0 14 14" fill="none" xmlns="http://www.w3.org/2000/svg">
<path fill-rule="evenodd" clip-rule="evenodd" d="M10.5413 0.287386C9.64573 0.166979 8.4986 0.166986 7.03814 0.166992H6.96187C5.50141 0.166986 4.35429 0.166979 3.45868 0.287386C2.54091 0.410779 1.81274 0.668806 1.24061 1.24093C0.668481 1.81307 0.410455 2.54124 0.287061 3.45901C0.166655 4.35462 0.166661 5.50174 0.166668 6.96219V7.03846C0.166661 8.49893 0.166655 9.64606 0.287061 10.5417C0.410455 11.4594 0.668481 12.1876 1.24061 12.7597C1.81274 13.3319 2.54091 13.5899 3.45868 13.7133C4.35429 13.8337 5.5014 13.8337 6.96187 13.8337H7.03814C8.4986 13.8337 9.64573 13.8337 10.5413 13.7133C11.4591 13.5899 12.1873 13.3319 12.7594 12.7597C13.3315 12.1876 13.5895 11.4594 13.7129 10.5417C13.8333 9.64606 13.8333 8.49893 13.8333 7.03846V6.96219C13.8333 5.50173 13.8333 4.35462 13.7129 3.45901C13.5895 2.54124 13.3315 1.81307 12.7594 1.24093C12.1873 0.668806 11.4591 0.410779 10.5413 0.287386ZM6.99433 3.16699C5.79707 3.16699 4.82531 4.13637 4.82531 5.33366C4.82531 6.53093 5.79707 7.50033 6.99433 7.50033C8.1916 7.50033 9.1634 6.53093 9.1634 5.33366C9.1634 4.13637 8.1916 3.16699 6.99433 3.16699ZM3.63836 9.98839C3.44767 10.1881 3.45499 10.5046 3.65472 10.6953C3.75157 10.7878 3.87589 10.8337 4 10.8337H10C10.1212 10.8337 10.2427 10.7899 10.3389 10.7013C10.5419 10.5142 10.5548 10.1979 10.3677 9.99479C8.5894 8.06533 5.38036 8.16386 3.63836 9.98839Z" fill="#4C6FFF"/>
</svg>
