<svg width="16" height="16" viewBox="0 0 16 16" fill="none" xmlns="http://www.w3.org/2000/svg">
<path fill-rule="evenodd" clip-rule="evenodd" d="M15.1667 8.03645C15.1667 9.34172 15.1667 10.3695 15.0651 11.1724C14.9611 11.9941 14.7431 12.6559 14.2497 13.1801C13.7523 13.7086 13.1175 13.9461 12.3301 14.0586C11.5686 14.1673 10.5964 14.1673 9.373 14.1673H6.62698C5.40358 14.1673 4.4314 14.1673 3.6699 14.0586C2.88254 13.9461 2.2477 13.7086 1.75028 13.1801C1.25689 12.6559 1.03889 11.9941 0.934919 11.1724C0.833319 10.3695 0.833326 9.34172 0.833332 8.03645V7.96485C0.833326 6.65956 0.833319 5.63188 0.934919 4.82894C1.03889 4.00725 1.2569 3.34539 1.75028 2.82116C2.2477 2.29266 2.88254 2.05522 3.6699 1.94274C4.43141 1.83396 5.40358 1.83397 6.62699 1.83398H9.373C10.5964 1.83397 11.5686 1.83396 12.3301 1.94274C13.1175 2.05522 13.7523 2.29266 14.2497 2.82116C14.7431 3.34539 14.9611 4.00725 15.0651 4.82894C15.1667 5.63186 15.1667 6.65951 15.1667 7.96478V8.03645ZM7.16667 6.1488C7.16667 6.96698 6.49509 7.63025 5.66667 7.63025C4.83824 7.63025 4.16667 6.96698 4.16667 6.1488C4.16667 5.3306 4.83824 4.66732 5.66667 4.66732C6.49509 4.66732 7.16667 5.3306 7.16667 6.1488ZM3.85919 8.91978C3.81229 8.95078 3.75782 8.98505 3.69849 9.02232C3.16133 9.36005 2.22602 9.94812 2.90422 10.6661C3.2721 11.0555 3.68183 11.334 4.19695 11.334H7.1364C7.65153 11.334 8.0612 11.0555 8.42913 10.6661C9.10733 9.94812 8.172 9.36005 7.63486 9.02232C7.57553 8.98505 7.52106 8.95078 7.47413 8.91978C6.36827 8.18812 4.96506 8.18812 3.85919 8.91978ZM10 5.83399C9.7238 5.83399 9.5 6.05785 9.5 6.33399C9.5 6.61014 9.7238 6.83398 10 6.83398H12.6667C12.9428 6.83398 13.1667 6.61014 13.1667 6.33399C13.1667 6.05785 12.9428 5.83399 12.6667 5.83399H10ZM10 8.50065C9.7238 8.50065 9.5 8.72452 9.5 9.00065C9.5 9.27678 9.7238 9.50065 10 9.50065H11.3333C11.6095 9.50065 11.8333 9.27678 11.8333 9.00065C11.8333 8.72452 11.6095 8.50065 11.3333 8.50065H10Z" fill="#4C6FFF"/>
</svg>
