<svg width="56" height="56" viewBox="0 0 56 56" fill="none" xmlns="http://www.w3.org/2000/svg">
<path fill-rule="evenodd" clip-rule="evenodd" d="M31.144 2.99345C32.4626 3.11138 33.7018 3.51376 34.7661 4.30744C35.5531 4.89444 36.0998 5.61297 36.5669 6.39116C36.9998 7.11227 37.4356 8.01135 37.9298 9.03125L38.9257 11.0853H49.0003C50.289 11.0853 51.3337 12.13 51.3337 13.4186C51.3337 14.7073 50.289 15.752 49.0003 15.752C34.9999 15.752 21.0008 15.752 7.00033 15.752C5.71167 15.752 4.66699 14.7073 4.66699 13.4186C4.66699 12.13 5.71167 11.0853 7.00033 11.0853H17.2898L18.12 9.26403C18.6019 8.20656 19.0264 7.27523 19.4528 6.52791C19.9127 5.72182 20.4572 4.97585 21.2537 4.36473C22.3311 3.53826 23.5952 3.11926 24.9434 2.99653C25.9584 2.90413 26.9816 2.91685 28.0003 2.91848C29.1922 2.92039 30.2637 2.9147 31.144 2.99345ZM22.4184 11.0853H33.7396C33.2107 9.99471 32.8723 9.30348 32.5657 8.79279C32.117 8.04535 31.5794 7.7177 30.7282 7.64157C30.1232 7.58746 29.3348 7.58529 28.0808 7.58529C26.7956 7.58529 25.9867 7.58753 25.3665 7.64397C24.4936 7.72344 23.9494 8.06357 23.5061 8.84053C23.2156 9.34968 22.8994 10.0312 22.4184 11.0853Z" fill="#DE2A43"/>
<path fill-rule="evenodd" clip-rule="evenodd" d="M45.6925 36.5313C45.5135 39.4554 45.3714 41.7759 45.0805 43.6293C44.7818 45.5302 44.3039 47.1132 43.348 48.4978C42.4734 49.7645 41.3476 50.8337 40.0419 51.637C38.6146 52.5153 37.0209 52.8994 35.1239 53.083L20.8306 53.0828C18.9315 52.8987 17.336 52.5139 15.9077 51.634C14.6011 50.8292 13.4749 49.7582 12.6007 48.4894C11.645 47.1024 11.1686 45.5172 10.8723 43.6136C10.5834 41.7575 10.4445 39.4337 10.2695 36.5054L8.75 11.083H47.25L45.6925 36.5313ZM19.25 28.7379C19.25 27.7715 20.0335 26.9879 21 26.9879H35C35.9665 26.9879 36.75 27.7715 36.75 28.7379C36.75 29.7044 35.9665 30.4879 35 30.4879H21C20.0335 30.4879 19.25 29.7044 19.25 28.7379ZM24.5 36.1299C23.5335 36.1299 22.75 36.9135 22.75 37.8799C22.75 38.8464 23.5335 39.6299 24.5 39.6299H31.5C32.4665 39.6299 33.25 38.8464 33.25 37.8799C33.25 36.9135 32.4665 36.1299 31.5 36.1299H24.5Z" fill="#DE2A43"/>
</svg>
