<svg width="25" height="24" viewBox="0 0 25 24" fill="none" xmlns="http://www.w3.org/2000/svg">
<circle cx="12.5" cy="12" r="12" fill="#DFEAFD"/>
<path d="M16.6875 8.4375L16.3002 14.7032C16.2012 16.304 16.1517 17.1044 15.7505 17.6799C15.5521 17.9644 15.2967 18.2046 15.0004 18.385C14.4013 18.75 13.5994 18.75 11.9954 18.75C10.3894 18.75 9.58644 18.75 8.98691 18.3843C8.6905 18.2036 8.435 17.963 8.23668 17.678C7.83555 17.1016 7.78716 16.3001 7.69038 14.697L7.3125 8.4375" stroke="#4C6FFF" stroke-width="0.9375" stroke-linecap="round"/>
<path d="M6.375 8.4375H17.625M14.5348 8.4375L14.1082 7.55733C13.8248 6.97266 13.683 6.68033 13.4386 6.49801C13.3844 6.45756 13.3269 6.42159 13.2669 6.39044C12.9962 6.25 12.6713 6.25 12.0216 6.25C11.3555 6.25 11.0225 6.25 10.7473 6.39632C10.6863 6.42876 10.6281 6.46619 10.5733 6.50823C10.326 6.69794 10.1879 7.00097 9.91163 7.60704L9.53308 8.4375" stroke="#4C6FFF" stroke-width="0.9375" stroke-linecap="round"/>
</svg>
