<svg width="16" height="16" viewBox="0 0 16 16" fill="none" xmlns="http://www.w3.org/2000/svg">
<g clip-path="url(#clip0_3236_5297)">
<path d="M8.93333 9.73262C8.65931 9.92023 8.33178 10.0138 8 9.99928C7.66822 10.0138 7.34069 9.92023 7.06667 9.73262L0 5.93262V12.666C0 13.1964 0.210714 13.7051 0.585786 14.0802C0.960859 14.4552 1.46957 14.666 2 14.666H14C14.5304 14.666 15.0391 14.4552 15.4142 14.0802C15.7893 13.7051 16 13.1964 16 12.666V5.93262L8.93333 9.73262Z" fill="#4C6FFF"/>
<path d="M14 1.33301H2.00001C1.46958 1.33301 0.960869 1.54372 0.585796 1.91879C0.210723 2.29387 9.8296e-06 2.80257 9.8296e-06 3.33301V3.99967C-0.00062718 4.11989 0.029707 4.23824 0.0880899 4.34333C0.146473 4.44842 0.230936 4.53671 0.333343 4.59967L7.66668 8.59967C7.76904 8.65357 7.8848 8.67672 8.00001 8.66634C8.11522 8.67672 8.23098 8.65357 8.33334 8.59967L15.6667 4.59967C15.7691 4.53671 15.8535 4.44842 15.9119 4.34333C15.9703 4.23824 16.0006 4.11989 16 3.99967V3.33301C16 2.80257 15.7893 2.29387 15.4142 1.91879C15.0392 1.54372 14.5304 1.33301 14 1.33301Z" fill="#4C6FFF"/>
</g>
<defs>
<clipPath id="clip0_3236_5297">
<rect width="16" height="16" fill="white"/>
</clipPath>
</defs>
</svg>
