<svg width="14" height="16" viewBox="0 0 14 16" fill="none" xmlns="http://www.w3.org/2000/svg">
<path fill-rule="evenodd" clip-rule="evenodd" d="M9.97567 0.915495C9.21427 0.833001 8.25453 0.833001 7.0302 0.833008H6.9698C5.74547 0.833001 4.78574 0.833001 4.02432 0.915495C3.24729 0.999681 2.61771 1.17455 2.08016 1.56511C1.75473 1.80155 1.46854 2.08773 1.2321 2.41317C0.841547 2.95071 0.666673 3.5803 0.582487 4.35733C0.499993 5.11875 0.499993 6.07849 0.5 7.30287V8.69654C0.499993 9.92087 0.499993 10.8806 0.582487 11.642C0.666673 12.4191 0.841547 13.0486 1.2321 13.5862C1.46854 13.9116 1.75473 14.1978 2.08016 14.4342C2.61771 14.8248 3.24729 14.9997 4.02432 15.0839C4.78573 15.1663 5.74547 15.1663 6.9698 15.1663H7.0302C8.25453 15.1663 9.21427 15.1663 9.97567 15.0839C10.7527 14.9997 11.3823 14.8248 11.9199 14.4342C12.2453 14.1978 12.5315 13.9116 12.7679 13.5862C13.1585 13.0486 13.3333 12.4191 13.4175 11.642C13.5 10.8806 13.5 9.92087 13.5 8.69654V7.30281C13.5 6.0785 13.5 5.11873 13.4175 4.35733C13.3333 3.5803 13.1585 2.95071 12.7679 2.41317C12.5315 2.08773 12.2453 1.80155 11.9199 1.56511C11.3823 1.17455 10.7527 0.999681 9.97567 0.915495ZM3 7.99967C3 7.63147 3.29847 7.33301 3.66667 7.33301H9C9.3682 7.33301 9.66667 7.63147 9.66667 7.99967C9.66667 8.36787 9.3682 8.66634 9 8.66634H3.66667C3.29847 8.66634 3 8.36787 3 7.99967ZM3 11.333C3 10.9648 3.29847 10.6663 3.66667 10.6663H5.66667C6.03487 10.6663 6.33333 10.9648 6.33333 11.333C6.33333 11.7012 6.03487 11.9997 5.66667 11.9997H3.66667C3.29847 11.9997 3 11.7012 3 11.333Z" fill="#4C6FFF"/>
</svg>
