<svg width="12" height="12" viewBox="0 0 12 12" fill="none" xmlns="http://www.w3.org/2000/svg">
<path d="M1.125 1.125C1.125 1.02554 1.16451 0.930161 1.23483 0.859835C1.30516 0.789509 1.40054 0.75 1.5 0.75H10.5C10.5995 0.75 10.6948 0.789509 10.7652 0.859835C10.8355 0.930161 10.875 1.02554 10.875 1.125V2.625C10.875 2.71748 10.8408 2.80669 10.779 2.8755L7.5 6.519V10.125C7.49994 10.2037 7.47514 10.2803 7.42911 10.3441C7.38307 10.4079 7.31814 10.4556 7.2435 10.4805L4.9935 11.2305C4.93716 11.2493 4.87716 11.2544 4.81845 11.2454C4.75974 11.2365 4.704 11.2137 4.65581 11.179C4.60763 11.1443 4.56837 11.0986 4.54128 11.0458C4.51419 10.9929 4.50005 10.9344 4.5 10.875V6.519L1.221 2.8755C1.15921 2.80669 1.12502 2.71748 1.125 2.625V1.125ZM1.875 1.5V2.481L5.154 6.1245C5.21579 6.19331 5.24998 6.28252 5.25 6.375V10.3545L6.75 9.855V6.375C6.75002 6.28252 6.78421 6.19331 6.846 6.1245L10.125 2.481V1.5H1.875Z" fill="black"/>
</svg>
