<svg width="40" height="40" viewBox="0 0 40 40" fill="none" xmlns="http://www.w3.org/2000/svg">
<path d="M12.3809 5.60327C18.9993 1.10673 28.56 3.54045 32.0502 10.6966M18.0952 36.5393C25.9732 37.6369 33.3333 31.4919 33.3333 23.6838V17.2221M12.3809 34.3429C8.9267 31.9961 6.66667 28.0971 6.66667 23.6838V16.2625C6.66667 14.288 7.11907 12.4164 7.9284 10.7407" stroke="#4C6FFF" stroke-width="1.5" stroke-linecap="round" stroke-linejoin="round"/>
<path d="M26.6667 23C26.6667 26.866 23.6818 30 20 30C16.3181 30 13.3333 26.866 13.3333 23V17C13.3333 15.9264 13.5635 14.9092 13.9749 14M20 10C23.6818 10 26.6667 13.134 26.6667 17" stroke="#4C6FFF" stroke-width="1.5" stroke-linecap="round" stroke-linejoin="round"/>
<path d="M20 17.5V22.5" stroke="#4C6FFF" stroke-width="1.5" stroke-linecap="round" stroke-linejoin="round"/>
</svg>
