<svg width="14" height="14" viewBox="0 0 14 14" fill="none" xmlns="http://www.w3.org/2000/svg">
<path fill-rule="evenodd" clip-rule="evenodd" d="M10.5413 0.287386C9.64573 0.166979 8.4986 0.166986 7.03814 0.166992H6.96187C5.50141 0.166986 4.35429 0.166979 3.45868 0.287386C2.54091 0.410779 1.81274 0.668799 1.24061 1.24093C0.668475 1.81307 0.410455 2.54124 0.287061 3.45901C0.166655 4.35462 0.166661 5.50174 0.166668 6.96219V7.03846C0.166661 8.49893 0.166655 9.64606 0.287061 10.5417C0.410455 11.4594 0.668475 12.1876 1.24061 12.7597C1.81274 13.3319 2.54091 13.5899 3.45868 13.7133C4.35429 13.8337 5.5014 13.8337 6.96187 13.8337H7.03814C8.4986 13.8337 9.64573 13.8337 10.5413 13.7133C11.4591 13.5899 12.1873 13.3319 12.7594 12.7597C13.3315 12.1876 13.5895 11.4594 13.7129 10.5417C13.8333 9.64606 13.8333 8.49893 13.8333 7.03846V6.96219C13.8333 5.50173 13.8333 4.35462 13.7129 3.45901C13.5895 2.54124 13.3315 1.81307 12.7594 1.24093C12.1873 0.668799 11.4591 0.410779 10.5413 0.287386ZM4.16667 7.66699C4.16667 7.39086 3.94281 7.16699 3.66667 7.16699C3.39053 7.16699 3.16667 7.39086 3.16667 7.66699V10.3337C3.16667 10.6098 3.39053 10.8337 3.66667 10.8337C3.94281 10.8337 4.16667 10.6098 4.16667 10.3337V7.66699ZM7 3.16699C7.27613 3.16699 7.5 3.39085 7.5 3.66699V10.3337C7.5 10.6098 7.27613 10.8337 7 10.8337C6.72387 10.8337 6.5 10.6098 6.5 10.3337V3.66699C6.5 3.39085 6.72387 3.16699 7 3.16699ZM10.8333 6.33366C10.8333 6.05753 10.6095 5.83366 10.3333 5.83366C10.0572 5.83366 9.83333 6.05753 9.83333 6.33366V10.3337C9.83333 10.6098 10.0572 10.8337 10.3333 10.8337C10.6095 10.8337 10.8333 10.6098 10.8333 10.3337V6.33366Z" fill="#4C6FFF"/>
</svg>
