<svg width="25" height="24" viewBox="0 0 25 24" fill="none" xmlns="http://www.w3.org/2000/svg">
<path fill-rule="evenodd" clip-rule="evenodd" d="M18.6974 0.252192C17.1301 0.0414808 15.1226 0.0414924 12.5668 0.0415041H12.4333C9.87749 0.0414924 7.87003 0.0414808 6.30271 0.252192C4.69662 0.468131 3.42232 0.919677 2.42108 1.9209C1.41986 2.92213 0.968314 4.19644 0.752376 5.80253C0.541664 7.36985 0.541676 9.37731 0.541687 11.9331V12.0666C0.541676 14.6224 0.541664 16.6299 0.752376 18.1972C0.968314 19.8032 1.41986 21.0776 2.42108 22.0788C3.42232 23.08 4.69662 23.5315 6.30271 23.7475C7.87003 23.9582 9.87747 23.9582 12.4333 23.9582H12.5668C15.1226 23.9582 17.1301 23.9582 18.6974 23.7475C20.3034 23.5315 21.5777 23.08 22.579 22.0788C23.5802 21.0776 24.0317 19.8032 24.2477 18.1972C24.4584 16.6299 24.4584 14.6224 24.4584 12.0666V11.9331C24.4584 9.37729 24.4584 7.36985 24.2477 5.80253C24.0317 4.19644 23.5802 2.92213 22.579 1.9209C21.5777 0.919677 20.3034 0.468131 18.6974 0.252192ZM18.625 9.66662C18.625 9.18333 18.2333 8.79157 17.75 8.79157H10.9432V7.33317C10.9435 7.158 10.8911 6.98108 10.7821 6.82728C10.5027 6.43302 9.95651 6.33993 9.56225 6.61936L7.35507 8.18367C7.15108 8.32809 6.92722 8.48658 6.77234 8.63251C6.69238 8.70785 6.55066 8.85142 6.46068 9.05794C6.34637 9.32027 6.33096 9.65563 6.51121 9.964C6.66967 10.2353 6.90865 10.3642 7.07203 10.4253C7.23027 10.4846 7.38856 10.5073 7.50675 10.5192C7.73083 10.5416 8.02213 10.5416 8.32496 10.5416H17.75C18.2333 10.5416 18.625 10.1499 18.625 9.66662ZM14.2179 17.1725C14.4974 17.5668 15.0436 17.6599 15.4378 17.3805L17.6449 15.8161C17.849 15.6717 18.0728 15.5133 18.2277 15.3673C18.3077 15.2919 18.4493 15.1484 18.5394 14.9419C18.6537 14.6796 18.6691 14.3441 18.4889 14.0358C18.3303 13.7647 18.0914 13.6356 17.9281 13.5745C17.7697 13.5153 17.6115 13.4925 17.4932 13.4806C17.2692 13.4582 16.9779 13.4582 16.6751 13.4583H7.25002C6.76678 13.4583 6.37502 13.8499 6.37502 14.3333C6.37502 14.8165 6.76678 15.2083 7.25002 15.2083H14.0568V16.6665C14.0566 16.8417 14.109 17.0187 14.2179 17.1725Z" fill="#4C6FFF"/>
</svg>
