<svg width="28" height="28" viewBox="0 0 28 28" fill="none" xmlns="http://www.w3.org/2000/svg">
<path d="M2.91669 13.9998C2.91669 8.77511 2.91669 6.16274 4.5398 4.53962C6.16293 2.9165 8.77529 2.9165 14 2.9165C19.2247 2.9165 21.8371 2.9165 23.4603 4.53962C25.0834 6.16274 25.0834 8.77511 25.0834 13.9998C25.0834 19.2245 25.0834 21.8369 23.4603 23.4601C21.8371 25.0832 19.2247 25.0832 14 25.0832C8.77529 25.0832 6.16293 25.0832 4.5398 23.4601C2.91669 21.8369 2.91669 19.2245 2.91669 13.9998Z" stroke="#828485" stroke-width="1.75"/>
<path d="M11.5682 9.3335L9.40001 10.8702C8.92163 11.2092 8.68245 11.3787 8.76662 11.5228C8.85081 11.6668 9.18908 11.6668 9.8656 11.6668H19.25" stroke="#828485" stroke-width="1.75" stroke-linecap="round" stroke-linejoin="round"/>
<path d="M16.4318 18.6668L18.5999 17.1301C19.0784 16.7911 19.3176 16.6215 19.2333 16.4776C19.1492 16.3335 18.811 16.3335 18.1344 16.3335H8.75" stroke="#828485" stroke-width="1.75" stroke-linecap="round" stroke-linejoin="round"/>
</svg>
