<svg width="52" height="52" viewBox="0 0 52 52" fill="none" xmlns="http://www.w3.org/2000/svg">
<path fill-rule="evenodd" clip-rule="evenodd" d="M26.0003 0.916992C39.8536 0.916992 51.0837 12.1472 51.0837 26.0003C51.0837 39.8536 39.8536 51.0837 26.0003 51.0837C12.1472 51.0837 0.916992 39.8536 0.916992 26.0003C0.916992 12.1472 12.1472 0.916992 26.0003 0.916992ZM14.3337 26.0141C14.3337 27.3026 15.3783 28.3474 16.667 28.3474H27.167V29.7066C27.1668 30.1163 27.1663 30.6196 27.2179 31.0312L27.2188 31.0392C27.2557 31.3341 27.4232 32.6783 28.7429 33.3184C30.0655 33.96 31.2326 33.2554 31.4851 33.103L32.5782 32.3118C33.4551 31.6241 34.6556 30.6777 35.5679 29.7899C36.0232 29.347 36.4926 28.84 36.8634 28.3012C37.1929 27.8224 37.667 27.0053 37.667 26.0003C37.667 24.9954 37.1929 24.1782 36.8634 23.6994C36.4926 23.1607 36.0232 22.6536 35.5679 22.2108C34.6556 21.323 33.4551 20.3764 32.5782 19.6889L31.4851 18.8976C31.2326 18.7452 30.0657 18.0407 28.7429 18.6822C27.4232 19.3224 27.2557 20.6665 27.2188 20.9616L27.2179 20.9694C27.1663 21.381 27.1668 21.8843 27.167 22.2941V23.6808H16.667C15.3783 23.6808 14.3337 24.7254 14.3337 26.0141Z" fill="#DE2A43"/>
</svg>
