<svg width="32" height="32" viewBox="0 0 32 32" fill="none" xmlns="http://www.w3.org/2000/svg">
<rect width="32" height="32" rx="16" fill="#ECF4FD"/>
<path fill-rule="evenodd" clip-rule="evenodd" d="M16 10.1673C14.7113 10.1673 13.6667 11.212 13.6667 12.5007V13.5408C14.4118 13.5143 15.1769 13.5007 16 13.5007C16.8231 13.5007 17.5882 13.5143 18.3333 13.5408V12.5007C18.3333 11.212 17.2887 10.1673 16 10.1673ZM12.3333 12.5007V13.6854C11.2882 14.0052 10.4995 14.9247 10.3497 16.0375C10.2509 16.7711 10.1667 17.5419 10.1667 18.334C10.1667 19.1261 10.2509 19.8969 10.3497 20.6305C10.5307 21.9752 11.6448 23.0377 13.0168 23.1007C13.9691 23.1445 14.9361 23.1673 16 23.1673C17.0639 23.1673 18.0309 23.1445 18.9832 23.1007C20.3552 23.0377 21.4693 21.9752 21.6503 20.6305C21.7491 19.8969 21.8333 19.1261 21.8333 18.334C21.8333 17.5419 21.7491 16.7711 21.6503 16.0375C21.5005 14.9247 20.7118 14.0052 19.6667 13.6854V12.5007C19.6667 10.4756 18.0251 8.83398 16 8.83398C13.9749 8.83398 12.3333 10.4756 12.3333 12.5007ZM16.6667 17.6673C16.6667 17.2991 16.3682 17.0007 16 17.0007C15.6318 17.0007 15.3333 17.2991 15.3333 17.6673V19.0007C15.3333 19.3689 15.6318 19.6673 16 19.6673C16.3682 19.6673 16.6667 19.3689 16.6667 19.0007V17.6673Z" fill="#4C6FFF"/>
</svg>
