<svg width="18" height="19" viewBox="0 0 18 19" fill="none" xmlns="http://www.w3.org/2000/svg">
<path d="M7.7169 16.9712H7.04333C4.60696 16.9712 3.38877 16.9712 2.63189 16.2023C1.875 15.4334 1.875 14.196 1.875 11.7212V7.97119C1.875 5.49632 1.875 4.25888 2.63189 3.49004C3.38877 2.72119 4.60696 2.72119 7.04333 2.72119H9.2583C11.6947 2.72119 13.118 2.76258 13.875 3.53142C14.6319 4.30026 14.625 5.49632 14.625 7.97119V8.86097" stroke="black" stroke-width="1.125" stroke-linecap="round" stroke-linejoin="round"/>
<path d="M11.959 2V3.5M8.20898 2V3.5M4.45898 2V3.5" stroke="black" stroke-width="1.125" stroke-linecap="round" stroke-linejoin="round"/>
<path d="M5.25 11.75H8.25M5.25 8H11.25" stroke="black" stroke-width="1.125" stroke-linecap="round"/>
<path opacity="0.93" d="M15.5699 11.6589C14.8908 10.8981 14.4834 10.9434 14.0307 11.0792C13.7138 11.1245 12.6274 12.3926 12.1747 12.7964C11.4314 13.5307 10.6848 14.2867 10.6355 14.3853C10.4948 14.6141 10.364 15.0194 10.3006 15.4722C10.1828 16.1516 10.013 16.9164 10.2281 16.9819C10.4432 17.0474 11.0429 16.9215 11.722 16.8219C12.1747 16.7403 12.4916 16.6497 12.7179 16.5139C13.0348 16.3237 13.6233 15.6534 14.6373 14.6571C15.2733 13.9875 15.8867 13.5248 16.0679 13.0719C16.2489 12.3926 15.9773 12.0303 15.5699 11.6589Z" stroke="black" stroke-width="1.125"/>
</svg>
