<svg width="16" height="16" viewBox="0 0 16 16" fill="none" xmlns="http://www.w3.org/2000/svg">
<path fill-rule="evenodd" clip-rule="evenodd" d="M9.03167 2.16699C10.2577 2.16699 11.2205 2.16698 11.9796 2.25273C12.7544 2.34025 13.3827 2.52274 13.9049 2.93519C14.0613 3.05865 14.2062 3.19503 14.338 3.34286C14.7821 3.841 14.9805 4.44479 15.0749 5.18556C15.1667 5.90517 15.1667 6.81579 15.1667 7.96519V8.03553C15.1667 9.18486 15.1667 10.0955 15.0749 10.8151C14.9805 11.5559 14.7821 12.1597 14.338 12.6578C14.2062 12.8057 14.0613 12.942 13.9049 13.0655C13.3827 13.4779 12.7544 13.6604 11.9796 13.7479C11.2205 13.8337 10.2577 13.8337 9.03167 13.8337H6.96833C5.7423 13.8337 4.77945 13.8337 4.02039 13.7479C3.24561 13.6604 2.61733 13.4779 2.09509 13.0655C1.93874 12.942 1.79379 12.8056 1.66199 12.6578C1.21787 12.1597 1.01955 11.5559 0.925085 10.8151C0.833319 10.0955 0.833326 9.18479 0.833332 8.03546V7.96519C0.833326 6.81586 0.833319 5.90517 0.925085 5.18556C1.01955 4.44479 1.21787 3.841 1.66199 3.34286C1.79379 3.19503 1.93874 3.05865 2.09509 2.93519C2.61733 2.52274 3.24561 2.34025 4.02039 2.25273C4.77945 2.16698 5.7423 2.16699 6.96833 2.16699H9.03167ZM6.66667 5.33366C5.19391 5.33366 4 6.52757 4 8.00033C4 9.47306 5.19391 10.667 6.66667 10.667C7.1524 10.667 7.6078 10.5371 8.00007 10.3102C8.39227 10.5369 8.84793 10.667 9.3332 10.667C10.8059 10.667 11.9999 9.47306 11.9999 8.00033C11.9999 6.52757 10.8059 5.33366 9.3332 5.33366C8.84793 5.33366 8.39227 5.46369 8.00007 5.69044C7.6078 5.46353 7.1524 5.33366 6.66667 5.33366ZM5.33333 8.00033C5.33333 7.26393 5.93029 6.66699 6.66667 6.66699C7.40307 6.66699 8 7.26393 8 8.00033C8 8.73673 7.40307 9.33366 6.66667 9.33366C5.93029 9.33366 5.33333 8.73673 5.33333 8.00033ZM9.3332 9.33366C9.21807 9.33366 9.1066 9.31919 9.00027 9.29193C9.21247 8.90926 9.33333 8.46893 9.33333 8.00033C9.33333 7.53173 9.21247 7.09139 9.00027 6.70873C9.1066 6.68146 9.21807 6.66699 9.3332 6.66699C10.0695 6.66699 10.6665 7.26393 10.6665 8.00033C10.6665 8.73673 10.0695 9.33366 9.3332 9.33366Z" fill="#4C6FFF"/>
</svg>
