<svg width="22" height="22" viewBox="0 0 22 22" fill="none" xmlns="http://www.w3.org/2000/svg">
<path fill-rule="evenodd" clip-rule="evenodd" d="M10.7587 0.125C4.82167 0.125 0.00872803 4.93794 0.00872803 10.875C0.00872803 16.8121 4.82167 21.625 10.7587 21.625C16.6958 21.625 21.5087 16.8121 21.5087 10.875C21.5087 4.93794 16.6958 0.125 10.7587 0.125ZM11.7587 6.875C11.7587 6.32272 11.311 5.875 10.7587 5.875C10.2064 5.875 9.75873 6.32272 9.75873 6.875V9.875H6.75873C6.20645 9.875 5.75873 10.3227 5.75873 10.875C5.75873 11.4273 6.20645 11.875 6.75873 11.875H9.75873V14.875C9.75873 15.4273 10.2064 15.875 10.7587 15.875C11.311 15.875 11.7587 15.4273 11.7587 14.875V11.875H14.7587C15.311 11.875 15.7587 11.4273 15.7587 10.875C15.7587 10.3227 15.311 9.875 14.7587 9.875H11.7587V6.875Z" fill="#4C6FFF"/>
</svg>
