<svg width="18" height="19" viewBox="0 0 18 19" fill="none" xmlns="http://www.w3.org/2000/svg">
<path d="M5.51547 14C3.92313 14 3.12696 14 2.56012 13.6601C2.18965 13.438 1.89119 13.1203 1.69856 12.7431C1.40384 12.166 1.48307 11.403 1.64151 9.87687C1.77377 8.60292 1.83991 7.96591 2.16513 7.49811C2.37865 7.19097 2.66744 6.93923 3.00598 6.76515C3.52161 6.5 4.18623 6.5 5.51547 6.5H12.4845C13.8138 6.5 14.4784 6.5 14.994 6.76515C15.3326 6.93923 15.6214 7.19097 15.8349 7.49811C16.1601 7.96591 16.2263 8.60292 16.3585 9.87687C16.517 11.403 16.5962 12.166 16.3014 12.7431C16.1088 13.1203 15.8104 13.438 15.4399 13.6601C14.873 14 14.0769 14 12.4845 14" stroke="black" stroke-width="1.125"/>
<path d="M12.75 6.5V5C12.75 3.58579 12.75 2.87868 12.3106 2.43934C11.8713 2 11.1642 2 9.75 2H8.25C6.83579 2 6.12868 2 5.68934 2.43934C5.25 2.87868 5.25 3.58579 5.25 5V6.5" stroke="black" stroke-width="1.125" stroke-linejoin="round"/>
<path d="M10.4915 12.5H7.50848C6.99452 12.5 6.73753 12.5 6.51887 12.5817C6.22733 12.6905 5.9777 12.902 5.80965 13.1824C5.68361 13.3928 5.62129 13.6633 5.49663 14.2043C5.30185 15.0496 5.20446 15.4722 5.27069 15.8112C5.35901 16.263 5.63428 16.6455 6.01689 16.848C6.30385 17 6.70539 17 7.50848 17H10.4915C11.2946 17 11.6962 17 11.9831 16.848C12.3657 16.6455 12.641 16.263 12.7293 15.8112C12.7955 15.4722 12.6982 15.0496 12.5034 14.2043C12.3788 13.6633 12.3164 13.3928 12.1904 13.1824C12.0223 12.902 11.7727 12.6905 11.4812 12.5817C11.2625 12.5 11.0055 12.5 10.4915 12.5Z" stroke="black" stroke-width="1.125" stroke-linejoin="round"/>
<path d="M13.5 9.5H13.5068" stroke="black" stroke-width="1.5" stroke-linecap="round" stroke-linejoin="round"/>
</svg>
