<svg width="12" height="16" viewBox="0 0 12 16" fill="none" xmlns="http://www.w3.org/2000/svg">
<path fill-rule="evenodd" clip-rule="evenodd" d="M7.36099 0.842371C7.41445 0.843498 7.45459 0.891471 7.44645 0.944338C7.38045 1.34044 7.33732 1.59376 7.28272 1.77977C7.23172 1.95366 7.18632 2.00988 7.15092 2.04128C7.11199 2.07583 7.05139 2.11346 6.87519 2.13781C6.68225 2.16448 6.41892 2.16726 5.99959 2.16726C5.58019 2.16726 5.31685 2.16448 5.12392 2.13781C4.94779 2.11346 4.88712 2.07583 4.84819 2.04128C4.81279 2.00988 4.76745 1.95366 4.71639 1.77977C4.66189 1.59408 4.6188 1.34129 4.55297 0.946311C4.54513 0.892245 4.58624 0.843465 4.64086 0.842318C5.03912 0.833978 5.47865 0.833978 5.96239 0.833985H6.03679C6.52159 0.833978 6.96205 0.833978 7.36099 0.842371ZM3.373 0.924018C3.46417 0.911765 3.54713 0.976305 3.56032 1.06734L3.56435 1.09514L3.56599 1.10562L3.57067 1.13372C3.63093 1.49544 3.68335 1.81009 3.75715 2.06153C3.83655 2.33208 3.95562 2.58612 4.18481 2.78946C4.42185 2.99977 4.69485 3.08812 4.98732 3.12854C5.26305 3.16665 5.60332 3.16742 5.99985 3.16742C6.39639 3.16742 6.73665 3.16665 7.01239 3.12854C7.30479 3.08812 7.57785 2.99977 7.81492 2.78946C8.04405 2.58612 8.16312 2.33208 8.24252 2.06153C8.31632 1.81009 8.36879 1.49544 8.42905 1.13372L8.43372 1.10563L8.43985 1.0659C8.45365 0.975558 8.53625 0.911845 8.62685 0.924018C9.31772 1.0169 9.88665 1.2139 10.3367 1.664C10.7868 2.11409 10.9839 2.68303 11.0767 3.37388C11.1666 4.0426 11.1666 4.89524 11.1666 5.96364V10.038C11.1666 11.1064 11.1666 11.959 11.0767 12.6277C10.9839 13.3186 10.7868 13.8875 10.3367 14.3376C9.88665 14.7877 9.31772 14.9847 8.62685 15.0776C7.95812 15.1675 7.10545 15.1674 6.03705 15.1674H5.96279C4.89439 15.1674 4.04172 15.1675 3.373 15.0776C2.68215 14.9847 2.11321 14.7877 1.66312 14.3376C1.21303 13.8875 1.01602 13.3186 0.923139 12.6277C0.833232 11.959 0.833239 11.1064 0.833252 10.038V5.96362C0.833239 4.89524 0.833232 4.04259 0.923139 3.37388C1.01602 2.68303 1.21303 2.11409 1.66312 1.664C2.11321 1.2139 2.68215 1.0169 3.373 0.924018ZM4.83325 13.334C4.83325 13.0578 5.05712 12.834 5.33325 12.834H6.66659C6.94272 12.834 7.16659 13.0578 7.16659 13.334C7.16659 13.6101 6.94272 13.834 6.66659 13.834H5.33325C5.05712 13.834 4.83325 13.6101 4.83325 13.334Z" fill="#4C6FFF"/>
</svg>
