<svg width="11" height="12" viewBox="0 0 11 12" fill="none" xmlns="http://www.w3.org/2000/svg">
<path d="M9 4.02713V9.3229C9 10.0787 9 10.4567 8.769 10.6054C8.39155 10.8486 7.80805 10.3387 7.51455 10.1537C7.27205 10.0007 7.15085 9.92425 7.01625 9.91985C6.87085 9.91505 6.74745 9.9884 6.48545 10.1537L5.53 10.7562C5.27225 10.9187 5.1434 11 5 11C4.8566 11 4.72773 10.9187 4.47 10.7562L3.51456 10.1537C3.27207 10.0007 3.15083 9.92425 3.01626 9.91985C2.87086 9.91505 2.74747 9.9884 2.48544 10.1537C2.19197 10.3387 1.60844 10.8486 1.23098 10.6054C1 10.4567 1 10.0787 1 9.3229V4.02713C1 2.60013 1 1.88663 1.43934 1.44332C1.87868 1 2.58579 1 4 1H10" stroke="#4C6FFF" stroke-linecap="round" stroke-linejoin="round"/>
</svg>
