<svg width="28" height="28" viewBox="0 0 28 28" fill="none" xmlns="http://www.w3.org/2000/svg">
<path d="M2.91669 13.9998C2.91669 8.77511 2.91669 6.16274 4.5398 4.53962C6.16293 2.9165 8.77529 2.9165 14 2.9165C19.2247 2.9165 21.8371 2.9165 23.4603 4.53962C25.0834 6.16274 25.0834 8.77511 25.0834 13.9998C25.0834 19.2245 25.0834 21.8369 23.4603 23.4601C21.8371 25.0832 19.2247 25.0832 14 25.0832C8.77529 25.0832 6.16293 25.0832 4.5398 23.4601C2.91669 21.8369 2.91669 19.2245 2.91669 13.9998Z" stroke="#828485" stroke-width="1.75"/>
<path d="M12.8333 8.1665H19.8333" stroke="#828485" stroke-width="1.75" stroke-linecap="round"/>
<path d="M8.16669 8.1665H9.33335" stroke="#828485" stroke-width="1.75" stroke-linecap="round"/>
<path d="M8.16669 14H9.33335" stroke="#828485" stroke-width="1.75" stroke-linecap="round"/>
<path d="M8.16669 19.8335H9.33335" stroke="#828485" stroke-width="1.75" stroke-linecap="round"/>
<path d="M12.8333 14H19.8333" stroke="#828485" stroke-width="1.75" stroke-linecap="round"/>
<path d="M12.8333 19.8335H19.8333" stroke="#828485" stroke-width="1.75" stroke-linecap="round"/>
</svg>
