<svg width="28" height="28" viewBox="0 0 28 28" fill="none" xmlns="http://www.w3.org/2000/svg">
<path fill-rule="evenodd" clip-rule="evenodd" d="M20.1974 2.25219C18.6301 2.04148 16.6226 2.04149 14.0668 2.0415C11.5109 2.04149 9.37003 2.04148 7.80271 2.25219C6.19662 2.46813 4.92232 2.91968 3.92108 3.9209C2.91986 4.92213 2.46831 6.19644 2.25238 7.80253C2.04166 9.36985 2.04168 11.5107 2.04169 14.0666C2.04168 16.6224 2.04166 18.6299 2.25238 20.1972C2.46831 21.8032 2.91986 23.0776 3.92108 24.0788C4.92232 25.08 6.19662 25.5315 7.80271 25.7475C9.37003 25.9582 11.5109 25.9582 14.0668 25.9582C16.6226 25.9582 18.6301 25.9582 20.1974 25.7475C21.8034 25.5315 23.0777 25.08 24.079 24.0788C25.0802 23.0776 25.5317 21.8032 25.7477 20.1972C25.9584 18.6299 25.9584 16.6224 25.9584 14.0666C25.9584 11.5107 25.9584 9.36985 25.7477 7.80253C25.5317 6.19644 25.0802 4.92213 24.079 3.9209C23.0777 2.91968 21.8034 2.46813 20.1974 2.25219ZM7.58335 6.99984C6.93903 6.99984 6.41669 7.52217 6.41669 8.1665C6.41669 8.81083 6.93902 9.33317 7.58335 9.33317H8.75002C9.39435 9.33317 9.91669 8.81084 9.91669 8.1665C9.91669 7.52218 9.39436 6.99984 8.75002 6.99984H7.58335ZM13.4167 6.99984C12.7723 6.99984 12.25 7.52218 12.25 8.1665C12.25 8.81083 12.7723 9.33317 13.4167 9.33317H20.4167C21.061 9.33317 21.5834 8.81084 21.5834 8.1665C21.5834 7.52218 21.061 6.99984 20.4167 6.99984H13.4167ZM7.58335 12.8332C6.93903 12.8332 6.41669 13.3555 6.41669 13.9998C6.41669 14.6442 6.93902 15.1665 7.58335 15.1665H8.75002C9.39435 15.1665 9.91669 14.6442 9.91669 13.9998C9.91669 13.3555 9.39436 12.8332 8.75002 12.8332H7.58335ZM13.4167 12.8332C12.7723 12.8332 12.25 13.3555 12.25 13.9998C12.25 14.6442 12.7723 15.1665 13.4167 15.1665H20.4167C21.061 15.1665 21.5834 14.6442 21.5834 13.9998C21.5834 13.3555 21.061 12.8332 20.4167 12.8332H13.4167ZM7.58335 18.6665C6.93903 18.6665 6.41669 19.1888 6.41669 19.8332C6.41669 20.4775 6.93903 20.9998 7.58335 20.9998H8.75002C9.39435 20.9998 9.91669 20.4775 9.91669 19.8332C9.91669 19.1888 9.39435 18.6665 8.75002 18.6665H7.58335ZM13.4167 18.6665C12.7723 18.6665 12.25 19.1888 12.25 19.8332C12.25 20.4775 12.7723 20.9998 13.4167 20.9998H20.4167C21.061 20.9998 21.5834 20.4775 21.5834 19.8332C21.5834 19.1888 21.061 18.6665 20.4167 18.6665H13.4167Z" fill="#4C6FFF"/>
</svg>
