<svg width="31" height="29" viewBox="0 0 31 29" fill="none" xmlns="http://www.w3.org/2000/svg">
<path d="M0.5 5.3125C0.5 4.03615 1.00703 2.81207 1.90955 1.90955C2.81207 1.00703 4.03615 0.5 5.3125 0.5H23.6875C24.9639 0.5 26.1879 1.00703 27.0905 1.90955C27.993 2.81207 28.5 4.03615 28.5 5.3125V16.25H26.75V11H12.2372L15.1195 13.8805C15.2838 14.0448 15.3761 14.2676 15.3761 14.5C15.3761 14.7324 15.2838 14.9552 15.1195 15.1195C14.9552 15.2838 14.7324 15.3761 14.5 15.3761C14.2676 15.3761 14.0448 15.2838 13.8805 15.1195L11 12.2372V19.75H12.9618C12.8211 20.1352 12.7495 20.5422 12.75 20.9523V21.5H5.3125C4.03615 21.5 2.81207 20.993 1.90955 20.0905C1.00703 19.1879 0.5 17.9639 0.5 16.6875V5.3125ZM2.25 11V16.6875C2.25 18.378 3.622 19.75 5.3125 19.75H9.25V12.2372L6.3695 15.1195C6.2052 15.2838 5.98236 15.3761 5.75 15.3761C5.51764 15.3761 5.2948 15.2838 5.1305 15.1195C4.9662 14.9552 4.87389 14.7324 4.87389 14.5C4.87389 14.2676 4.9662 14.0448 5.1305 13.8805L8.01275 11H2.25ZM4.469 9.25C4.08383 8.58276 3.92958 7.80708 4.03017 7.04325C4.13076 6.27941 4.48056 5.57011 5.02534 5.02534C5.57011 4.48056 6.27941 4.13076 7.04325 4.03017C7.80708 3.92958 8.58276 4.08383 9.25 4.469V2.25H5.3125C4.50027 2.25 3.72132 2.57266 3.14699 3.14699C2.57266 3.72132 2.25 4.50027 2.25 5.3125V9.25H4.469ZM7.5 9.25H9.25V7.5C9.25 7.15388 9.14736 6.81554 8.95507 6.52775C8.76278 6.23997 8.48947 6.01566 8.1697 5.88321C7.84993 5.75076 7.49806 5.7161 7.15859 5.78363C6.81913 5.85115 6.50731 6.01782 6.26256 6.26256C6.01782 6.50731 5.85115 6.81913 5.78363 7.15859C5.7161 7.49806 5.75076 7.84993 5.88321 8.1697C6.01566 8.48947 6.23997 8.76278 6.52775 8.95507C6.81554 9.14736 7.15388 9.25 7.5 9.25ZM11 7.5V9.25H12.75C13.0961 9.25 13.4345 9.14736 13.7222 8.95507C14.01 8.76278 14.2343 8.48947 14.3668 8.1697C14.4992 7.84993 14.5339 7.49806 14.4664 7.15859C14.3989 6.81913 14.2322 6.50731 13.9874 6.26256C13.7427 6.01782 13.4309 5.85115 13.0914 5.78363C12.7519 5.7161 12.4001 5.75076 12.0803 5.88321C11.7605 6.01566 11.4872 6.23997 11.2949 6.52775C11.1026 6.81554 11 7.15388 11 7.5ZM15.781 9.25H26.75V5.3125C26.75 4.50027 26.4273 3.72132 25.853 3.14699C25.2787 2.57266 24.4997 2.25 23.6875 2.25H11V4.469C11.6672 4.08383 12.4429 3.92958 13.2068 4.03017C13.9706 4.13076 14.6799 4.48056 15.2247 5.02534C15.7694 5.57011 16.1192 6.27941 16.2198 7.04325C16.3204 7.80708 16.1662 8.58276 15.781 9.25ZM30.25 20.625V25.875C30.25 26.5712 29.9734 27.2389 29.4812 27.7312C28.9889 28.2234 28.3212 28.5 27.625 28.5H17.125C16.4288 28.5 15.7611 28.2234 15.2688 27.7312C14.7766 27.2389 14.5 26.5712 14.5 25.875V20.625C14.5 19.9288 14.7766 19.2611 15.2688 18.7688C15.7611 18.2766 16.4288 18 17.125 18H27.625C28.3212 18 28.9889 18.2766 29.4812 18.7688C29.9734 19.2611 30.25 19.9288 30.25 20.625ZM28.5 25.875V24.125C27.8038 24.125 27.1361 24.4016 26.6438 24.8938C26.1516 25.3861 25.875 26.0538 25.875 26.75H27.625C27.625 26.5179 27.7172 26.2954 27.8813 26.1313C28.0454 25.9672 28.2679 25.875 28.5 25.875ZM27.625 19.75H25.875C25.875 20.4462 26.1516 21.1139 26.6438 21.6062C27.1361 22.0984 27.8038 22.375 28.5 22.375V20.625C28.2679 20.625 28.0454 20.5328 27.8813 20.3687C27.7172 20.2046 27.625 19.9821 27.625 19.75ZM17.125 19.75C17.125 19.9821 17.0328 20.2046 16.8687 20.3687C16.7046 20.5328 16.4821 20.625 16.25 20.625V22.375C16.9462 22.375 17.6139 22.0984 18.1062 21.6062C18.5984 21.1139 18.875 20.4462 18.875 19.75H17.125ZM16.25 25.875C16.4821 25.875 16.7046 25.9672 16.8687 26.1313C17.0328 26.2954 17.125 26.5179 17.125 26.75H18.875C18.875 26.0538 18.5984 25.3861 18.1062 24.8938C17.6139 24.4016 16.9462 24.125 16.25 24.125V25.875ZM22.375 20.625C21.6788 20.625 21.0111 20.9016 20.5188 21.3938C20.0266 21.8861 19.75 22.5538 19.75 23.25C19.75 23.9462 20.0266 24.6139 20.5188 25.1062C21.0111 25.5984 21.6788 25.875 22.375 25.875C23.0712 25.875 23.7389 25.5984 24.2312 25.1062C24.7234 24.6139 25 23.9462 25 23.25C25 22.5538 24.7234 21.8861 24.2312 21.3938C23.7389 20.9016 23.0712 20.625 22.375 20.625Z" fill="white"/>
</svg>
