<svg width="12" height="16" viewBox="0 0 12 16" fill="none" xmlns="http://www.w3.org/2000/svg">
<path fill-rule="evenodd" clip-rule="evenodd" d="M6 2.16634C4.71133 2.16634 3.66667 3.21101 3.66667 4.49967V5.53978C4.41182 5.51333 5.17693 5.49967 6 5.49967C6.82307 5.49967 7.5882 5.51333 8.33333 5.53978V4.49967C8.33333 3.21101 7.28867 2.16634 6 2.16634ZM2.33333 4.49967V5.68442C1.28822 6.00425 0.499501 6.92374 0.349681 8.03647C0.250908 8.77007 0.166668 9.54087 0.166668 10.333C0.166668 11.1251 0.250908 11.8959 0.349681 12.6295C0.530728 13.9742 1.64477 15.0367 3.01681 15.0997C3.96909 15.1435 4.93613 15.1663 6 15.1663C7.06387 15.1663 8.03093 15.1435 8.9832 15.0997C10.3552 15.0367 11.4693 13.9742 11.6503 12.6295C11.7491 11.8959 11.8333 11.1251 11.8333 10.333C11.8333 9.54087 11.7491 8.77007 11.6503 8.03647C11.5005 6.92374 10.7118 6.00425 9.66667 5.68442V4.49967C9.66667 2.47463 8.02507 0.833008 6 0.833008C3.97495 0.833008 2.33333 2.47463 2.33333 4.49967ZM6.66667 9.66634C6.66667 9.29814 6.3682 8.99967 6 8.99967C5.6318 8.99967 5.33333 9.29814 5.33333 9.66634V10.9997C5.33333 11.3679 5.6318 11.6663 6 11.6663C6.3682 11.6663 6.66667 11.3679 6.66667 10.9997V9.66634Z" fill="#4C6FFF"/>
</svg>
