<svg width="19" height="20" viewBox="0 0 19 20" fill="none" xmlns="http://www.w3.org/2000/svg">
<path fill-rule="evenodd" clip-rule="evenodd" d="M13.6316 1.98935C12.5867 1.84569 11.2484 1.8457 9.54454 1.8457H9.45556C7.7517 1.8457 6.4134 1.84569 5.36851 1.98935C4.29779 2.13659 3.44825 2.44446 2.78076 3.12711C2.11328 3.80977 1.81225 4.67861 1.66829 5.77367C1.52782 6.8423 1.52782 8.21103 1.52783 9.95361V10.0446C1.52782 11.7872 1.52782 13.156 1.66829 14.2246C1.81225 15.3196 2.11328 16.1885 2.78076 16.8711C3.44825 17.5538 4.29779 17.8616 5.36851 18.0089C6.4134 18.1525 7.75169 18.1525 9.45556 18.1525H9.54454C11.2484 18.1525 12.5867 18.1525 13.6316 18.0089C14.7023 17.8616 15.5519 17.5538 16.2194 16.8711C16.8868 16.1885 17.1878 15.3196 17.3318 14.2246C17.4723 13.156 17.4723 11.7872 17.4723 10.0446V9.95361C17.4723 8.21101 17.4723 6.8423 17.3318 5.77367C17.1878 4.67861 16.8868 3.80977 16.2194 3.12711C15.5519 2.44446 14.7023 2.13659 13.6316 1.98935ZM12.0573 5.65146C11.8573 5.39317 11.4905 5.34962 11.2379 5.55418C11.0926 5.67185 11.0168 5.84598 11.0167 6.02184V7.23313H7.40005C6.66921 7.23313 6.07022 7.43094 5.726 7.99345C5.4333 8.47176 5.41672 9.10009 5.41672 9.63758C5.41672 9.96706 5.67789 10.2342 6.00005 10.2342C6.32222 10.2342 6.58339 9.96706 6.58339 9.63758C6.58339 9.04512 6.62739 8.76958 6.71496 8.62648C6.75105 8.56745 6.85206 8.42634 7.40005 8.42634H12.0351C12.233 8.42634 12.4334 8.41544 12.6075 8.37218C12.7641 8.3333 13.0494 8.23123 13.1939 7.92559C13.3385 7.61996 13.2395 7.32787 13.1722 7.17821C13.0972 7.01176 12.9811 6.84433 12.8583 6.68572L12.0573 5.65146ZM13.5834 10.3607C13.5834 10.0312 13.3222 9.76414 13.0001 9.76414C12.6779 9.76414 12.4167 10.0312 12.4167 10.3607C12.4167 10.9531 12.3727 11.2287 12.2851 11.3718C12.249 11.4308 12.1481 11.572 11.6001 11.572H6.96496C6.76712 11.572 6.56671 11.5829 6.39259 11.6261C6.23602 11.665 5.95075 11.767 5.80622 12.0727C5.66168 12.3783 5.76057 12.6704 5.82797 12.82C5.90293 12.9865 6.01901 13.154 6.14184 13.3126L6.94277 14.3468C7.14279 14.6051 7.50967 14.6486 7.76223 14.4441C7.90751 14.3264 7.98331 14.1523 7.98339 13.9764V12.7651H11.6001C12.3309 12.7651 12.9299 12.5673 13.2741 12.0049C13.5668 11.5265 13.5834 10.8981 13.5834 10.3607Z" fill="#4C6FFF"/>
</svg>
