<svg width="28" height="28" viewBox="0 0 28 28" fill="none" xmlns="http://www.w3.org/2000/svg">
<path d="M24.8704 8.33146L24.2946 7.3321C23.8591 6.57629 23.6414 6.1984 23.2708 6.0477C22.9003 5.89701 22.4812 6.01592 21.6432 6.25373L20.2196 6.65472C19.6846 6.7781 19.1232 6.7081 18.6347 6.4571L18.2417 6.23033C17.8227 5.96201 17.5005 5.56639 17.3221 5.10137L16.9326 3.93776C16.6764 3.16774 16.5483 2.78272 16.2433 2.5625C15.9384 2.34228 15.5334 2.34229 14.7232 2.34229H13.4226C12.6126 2.34229 12.2076 2.34228 11.9026 2.5625C11.5977 2.78272 11.4696 3.16774 11.2134 3.93776L10.8238 5.10137C10.6454 5.56639 10.3232 5.96201 9.90428 6.23033L9.51126 6.4571C9.02271 6.7081 8.46137 6.7781 7.92633 6.65472L6.50273 6.25373C5.66466 6.01592 5.24564 5.89701 4.87513 6.0477C4.50462 6.1984 4.28688 6.57629 3.85136 7.3321L3.27552 8.33146C2.86729 9.03992 2.66317 9.39416 2.70279 9.77125C2.7424 10.1483 3.01565 10.4522 3.56216 11.06L4.76504 12.4048C5.05904 12.7769 5.26776 13.4256 5.26776 14.0088C5.26776 14.5923 5.05911 15.2407 4.76507 15.613L3.56216 16.9578C3.01565 17.5656 2.74241 17.8694 2.70279 18.2466C2.66317 18.6237 2.86729 18.9779 3.27552 19.6863L3.85135 20.6857C4.28685 21.4414 4.50462 21.8194 4.87513 21.97C5.24564 22.1208 5.66468 22.0019 6.50275 21.764L7.92628 21.363C8.46142 21.2396 9.02287 21.3097 9.51147 21.5608L9.90444 21.7876C10.3233 22.0559 10.6454 22.4514 10.8238 22.9164L11.2134 24.0802C11.4696 24.8502 11.5977 25.2352 11.9026 25.4555C12.2076 25.6756 12.6126 25.6756 13.4226 25.6756H14.7232C15.5334 25.6756 15.9384 25.6756 16.2433 25.4555C16.5483 25.2352 16.6764 24.8502 16.9326 24.0802L17.3222 22.9164C17.5005 22.4514 17.8226 22.0559 18.2416 21.7876L18.6345 21.5608C19.1231 21.3097 19.6845 21.2396 20.2196 21.363L21.6432 21.764C22.4812 22.0019 22.9003 22.1208 23.2708 21.97C23.6414 21.8194 23.8591 21.4414 24.2946 20.6857L24.8704 19.6863C25.2786 18.9779 25.4827 18.6237 25.4431 18.2466C25.4035 17.8694 25.1303 17.5656 24.5838 16.9578L23.3808 15.613C23.0868 15.2407 22.8781 14.5923 22.8781 14.0088C22.8781 13.4256 23.087 12.7769 23.3808 12.4048L24.5838 11.06C25.1303 10.4522 25.4035 10.1483 25.4431 9.77125C25.4827 9.39416 25.2786 9.03992 24.8704 8.33146Z" stroke="#828485" stroke-width="1.75" stroke-linecap="round"/>
<path d="M18.1061 13.9998C18.1061 16.255 16.2779 18.0832 14.0228 18.0832C11.7676 18.0832 9.93945 16.255 9.93945 13.9998C9.93945 11.7447 11.7676 9.9165 14.0228 9.9165C16.2779 9.9165 18.1061 11.7447 18.1061 13.9998Z" stroke="#828485" stroke-width="1.75"/>
</svg>
