<svg width="28" height="28" viewBox="0 0 28 28" fill="none" xmlns="http://www.w3.org/2000/svg">
<path fill-rule="evenodd" clip-rule="evenodd" d="M11.3747 26.1882C11.6948 26.4186 12.0378 26.5046 12.364 26.5418H15.636C15.9622 26.5046 16.3052 26.4186 16.6253 26.1882C16.9452 25.9579 17.1352 25.6605 17.2734 25.3637C17.3976 25.0971 18.0232 23.2299 18.0232 23.2299C18.0232 23.2299 18.3288 22.7126 18.5799 22.5479C19.0728 22.2246 19.5701 22.1545 19.8941 22.2246C19.8941 22.2246 22.0892 22.8426 22.3992 22.8917C22.7439 22.9463 23.1211 22.9532 23.5111 22.7951C23.901 22.6371 24.1663 22.3697 24.3752 22.091L26.0535 19.1949C26.1849 18.8925 26.2817 18.5511 26.2403 18.1573C26.1988 17.7636 26.0328 17.4498 25.8412 17.1812C25.6691 16.94 24.2191 15.3258 23.9681 15.0478C23.9681 15.0478 23.6648 14.5827 23.6648 13.9999C23.6648 13.3178 23.9681 12.9524 23.9681 12.9524C23.9681 12.9524 25.6691 11.0601 25.8412 10.819C26.0328 10.5505 26.1988 10.2366 26.2403 9.84286C26.2817 9.44916 26.1849 9.10777 26.0535 8.80538C25.9355 8.53382 24.3752 5.90918 24.3752 5.90918C24.1663 5.63044 23.901 5.36315 23.5111 5.20511C23.1211 5.047 22.7439 5.05396 22.3992 5.10853C22.0892 5.15758 20.279 5.66664 19.8941 5.77557C19.8941 5.77557 19.2765 5.90918 18.5799 5.45233C18.3288 5.28771 18.1343 5.04965 18.0231 4.77034C18.0231 4.77034 17.3976 2.90317 17.2734 2.63661C17.1352 2.33983 16.9452 2.04238 16.6253 1.81209C16.3052 1.5817 15.9622 1.49569 15.636 1.4585H12.364C12.0378 1.49569 11.6948 1.5817 11.3747 1.81209C11.0548 2.04238 10.8649 2.33983 10.7266 2.63661C10.6024 2.90317 9.97683 4.77034 9.97683 4.77034C9.86564 5.04965 9.67115 5.28771 9.42011 5.45233C8.72348 5.90918 8.10593 5.77557 8.10593 5.77557C7.72095 5.66664 5.91081 5.15758 5.6008 5.10853C5.25604 5.05396 4.87887 5.047 4.48885 5.20511C4.09899 5.36315 3.83369 5.63044 3.62482 5.90918C3.62482 5.90918 2.06449 8.53382 1.9465 8.80538C1.81513 9.10777 1.71822 9.44916 1.75971 9.84286C1.80121 10.2366 1.96722 10.5505 2.15883 10.819C2.33089 11.0601 4.03183 12.9524 4.03183 12.9524C4.03183 12.9524 4.33522 13.3178 4.33522 13.9999C4.33522 14.5827 4.03186 15.0478 4.03186 15.0478C3.78096 15.3258 2.33089 16.94 2.15884 17.1812C1.96722 17.4498 1.80121 17.7636 1.75971 18.1573C1.71822 18.5511 1.81513 18.8925 1.94651 19.1949L3.62479 22.091C3.83367 22.3697 4.09897 22.6371 4.48887 22.7951C4.87889 22.9532 5.25605 22.9463 5.60083 22.8917C5.91083 22.8426 8.10587 22.2246 8.10587 22.2246C8.4299 22.1545 8.92725 22.2246 9.42017 22.5479C9.67116 22.7126 9.97678 23.2299 9.97678 23.2299C9.97678 23.2299 10.6024 25.0971 10.7266 25.3637C10.8649 25.6605 11.0548 25.9579 11.3747 26.1882ZM14.0227 18.0835C16.2779 18.0835 18.1061 16.2553 18.1061 14.0002C18.1061 11.745 16.2779 9.91683 14.0227 9.91683C11.7676 9.91683 9.93945 11.745 9.93945 14.0002C9.93945 16.2553 11.7676 18.0835 14.0227 18.0835Z" fill="#4C6FFF"/>
</svg>
