<svg width="16" height="16" viewBox="0 0 16 16" fill="none" xmlns="http://www.w3.org/2000/svg">
<path d="M9.04313 10.1465C9.4232 10.352 10.0195 10.6744 10.4273 11.0574C10.6813 11.296 10.9439 11.6288 10.9922 12.0522C11.0443 12.5102 10.8323 12.9238 10.4515 13.2719C9.81213 13.8563 9.0348 14.3334 8.0266 14.3334H3.30677C2.29852 14.3334 1.52118 13.8563 0.881865 13.2719C0.500986 12.9238 0.28897 12.5102 0.341158 12.0522C0.389387 11.6288 0.652086 11.296 0.906039 11.0574C1.3139 10.6744 1.91007 10.352 2.29015 10.1465C2.37477 10.1008 2.44869 10.0608 2.50743 10.0272C4.44226 8.92191 6.89107 8.92191 8.82593 10.0272C8.8846 10.0608 8.95853 10.1008 9.04313 10.1465Z" fill="#4C6FFF"/>
<path d="M2.39779 4.91925C2.39779 3.12307 3.86125 1.66699 5.66651 1.66699C7.4718 1.66699 8.93527 3.12307 8.93527 4.91925C8.93527 6.71539 7.4718 8.17153 5.66651 8.17153C3.86125 8.17153 2.39779 6.71539 2.39779 4.91925Z" fill="#4C6FFF"/>
<path d="M9.18506 7.3104C9.048 7.4938 8.97946 7.58553 9.0054 7.67627C9.0314 7.76707 9.12273 7.80853 9.3054 7.89153C9.68546 8.0642 10.1141 8.16127 10.5677 8.16127C12.1321 8.16127 13.4003 7.00587 13.4003 5.58065C13.4003 4.15539 12.1321 3 10.5677 3C10.3971 3 10.23 3.01374 10.0677 3.04007C9.86673 3.07268 9.76626 3.08898 9.7132 3.16948C9.66013 3.24998 9.69766 3.35571 9.7728 3.56717C9.92106 3.98463 10.0011 4.43003 10.0011 4.89247C10.0011 5.78895 9.70013 6.62136 9.18506 7.3104Z" fill="#4C6FFF"/>
<path d="M12.5953 13.6657C13.6166 13.6657 14.4109 13.2682 15.0715 12.7721C15.4629 12.4781 15.7194 12.0994 15.6575 11.6528C15.6018 11.2516 15.3042 10.953 15.0474 10.7548C14.6267 10.4301 14.0129 10.1575 13.6261 9.98571C13.5407 9.94777 13.4664 9.91471 13.4076 9.88717C12.654 9.53337 11.8249 9.31471 10.9779 9.23124C10.4317 9.17744 10.1587 9.15051 10.0962 9.29911C10.0338 9.44771 10.277 9.60691 10.7634 9.92524C10.9481 10.0462 11.1268 10.1757 11.2836 10.3106C11.6366 10.6141 12.1542 11.1605 12.2518 11.9448C12.2971 12.3082 12.2447 12.6431 12.1269 12.9456C11.9866 13.3059 11.9165 13.486 11.9771 13.5714C11.981 13.5769 11.9834 13.5799 11.9877 13.5851C12.0558 13.6657 12.2356 13.6657 12.5953 13.6657Z" fill="#4C6FFF"/>
</svg>
