<svg width="16" height="16" viewBox="0 0 16 16" fill="none" xmlns="http://www.w3.org/2000/svg">
<path d="M3.70067 9.59984C5.82279 8.35604 8.5108 8.35604 10.6329 9.59984C10.7001 9.63924 10.7838 9.68571 10.8791 9.73858C11.3008 9.97271 11.9487 10.3324 12.3923 10.7598C12.6693 11.0267 12.9423 11.3872 12.9922 11.8361C13.0456 12.3171 12.8307 12.761 12.4199 13.1464C11.7198 13.8029 10.8745 14.3336 9.7796 14.3336H4.55397C3.45908 14.3336 2.6138 13.8028 1.91375 13.1464C1.50287 12.761 1.28797 12.3171 1.34138 11.8361C1.39123 11.3872 1.66427 11.0267 1.94126 10.7598C2.38485 10.3324 3.03279 9.97271 3.45455 9.73858C3.54977 9.68571 3.63347 9.63924 3.70067 9.59984Z" fill="#4C6FFF"/>
<path d="M4.00013 4.49967C4.00013 2.75077 5.41789 1.33301 7.1668 1.33301C8.91567 1.33301 10.3335 2.75077 10.3335 4.49967C10.3335 6.24857 8.91567 7.66634 7.1668 7.66634C5.41789 7.66634 4.00013 6.24857 4.00013 4.49967Z" fill="#4C6FFF"/>
<path fill-rule="evenodd" clip-rule="evenodd" d="M12.8333 3.16634C12.6651 3.16634 12.5 3.31105 12.5 3.52531C12.5 3.89351 12.2015 4.19198 11.8333 4.19198C11.4651 4.19198 11.1667 3.89351 11.1667 3.52531C11.1667 2.60669 11.8971 1.83301 12.8333 1.83301C13.7696 1.83301 14.5 2.60669 14.5 3.52531C14.5 3.85757 14.405 4.17022 14.2396 4.43387C14.1446 4.58536 14.0353 4.72711 13.9419 4.84627C13.9239 4.86915 13.9065 4.89117 13.8897 4.91251C13.8127 5.01035 13.7469 5.09386 13.6858 5.18003C13.5331 5.39532 13.5 5.50765 13.5 5.57659V5.83301C13.5 6.20119 13.2015 6.49967 12.8333 6.49967C12.4651 6.49967 12.1667 6.20119 12.1667 5.83301V5.57659C12.1667 5.0791 12.405 4.68109 12.5983 4.40856C12.6807 4.29237 12.7714 4.17737 12.8489 4.07904C12.8641 4.05978 12.8788 4.04115 12.8928 4.02329C12.9851 3.9056 13.0558 3.81195 13.1101 3.72527C13.1453 3.66926 13.1667 3.60141 13.1667 3.52531C13.1667 3.31105 13.0016 3.16634 12.8333 3.16634Z" fill="#4C6FFF"/>
<path fill-rule="evenodd" clip-rule="evenodd" d="M12.1667 7.49967C12.1667 7.13147 12.4651 6.83301 12.8333 6.83301H12.8393C13.2075 6.83301 13.506 7.13147 13.506 7.49967C13.506 7.86787 13.2075 8.16634 12.8393 8.16634H12.8333C12.4651 8.16634 12.1667 7.86787 12.1667 7.49967Z" fill="#4C6FFF"/>
</svg>
