<svg width="28" height="28" viewBox="0 0 28 28" fill="none" xmlns="http://www.w3.org/2000/svg">
<path d="M18.6667 16.3335C18.6667 17.3 19.4502 18.0835 20.4167 18.0835C21.3832 18.0835 22.1667 17.3 22.1667 16.3335C22.1667 15.367 21.3832 14.5835 20.4167 14.5835C19.4502 14.5835 18.6667 15.367 18.6667 16.3335Z" stroke="#828485" stroke-width="1.75"/>
<path d="M11.6666 8.16667H18.6666C21.9664 8.16667 23.6163 8.16667 24.6415 9.19179C25.6666 10.2169 25.6666 11.8669 25.6666 15.1667V17.5C25.6666 20.7998 25.6666 22.4497 24.6415 23.4749C23.6163 24.5 21.9664 24.5 18.6666 24.5H11.6666C7.26687 24.5 5.06699 24.5 3.70014 23.1331C2.33331 21.7664 2.33331 19.5664 2.33331 15.1667V12.8333C2.33331 8.43355 2.33331 6.23367 3.70014 4.86683C5.06699 3.5 7.26687 3.5 11.6666 3.5H16.3333C17.4183 3.5 17.9608 3.5 18.4059 3.61926C19.6136 3.94289 20.5571 4.88631 20.8807 6.09413C21 6.53921 21 7.0817 21 8.16667" stroke="#828485" stroke-width="1.75" stroke-linecap="round"/>
</svg>
