<svg width="28" height="28" viewBox="0 0 28 28" fill="none" xmlns="http://www.w3.org/2000/svg">
<path fill-rule="evenodd" clip-rule="evenodd" d="M21.8256 5.99746C21.9253 6.36825 21.9612 6.77551 21.9741 7.25621C22.1445 7.27125 22.3083 7.28905 22.4657 7.31017C23.5236 7.45206 24.4579 7.76142 25.2059 8.50774C25.954 9.25407 26.264 10.1862 26.4062 11.2416C26.5418 12.2468 26.5416 13.517 26.5416 15.0573V17.4928C26.5416 19.0331 26.5418 20.3033 26.4062 21.3086C26.264 22.3639 25.954 23.296 25.2059 24.0423C24.4579 24.7886 23.5236 25.098 22.4657 25.2399C21.4581 25.3751 20.1849 25.375 18.641 25.375H11.6363C9.55727 25.375 7.8815 25.375 6.56353 25.1982C5.19518 25.0147 4.04306 24.622 3.12802 23.7092C2.213 22.7963 1.81942 21.6468 1.63545 20.2817C1.45826 18.9668 1.45828 17.2949 1.45831 15.2208V6.03759C1.45831 4.15292 2.9897 2.6251 4.87877 2.6251L16.4371 2.62505C17.344 2.62456 18.0174 2.62419 18.6008 2.78014C20.1747 3.20086 21.4039 4.4273 21.8256 5.99746ZM18.01 4.9776C17.7566 4.90985 17.4135 4.90008 16.2798 4.90008H4.87825C4.24856 4.90008 3.7381 5.40935 3.7381 6.03758C3.7381 6.66579 4.24856 7.17507 4.87825 7.17507H18.6405C19.0051 7.17505 19.3546 7.17505 19.689 7.17682C19.6786 6.88272 19.6589 6.72165 19.6225 6.58626C19.4117 5.80118 18.797 5.18796 18.01 4.9776ZM20.4166 14C21.7053 14 22.75 15.0446 22.75 16.3333C22.75 17.622 21.7053 18.6667 20.4166 18.6667C19.1279 18.6667 18.0833 17.622 18.0833 16.3333C18.0833 15.0446 19.1279 14 20.4166 14Z" fill="#4C6FFF"/>
</svg>
